<svg width="283" height="240" viewBox="0 0 283 240" fill="none" xmlns="http://www.w3.org/2000/svg">
<path opacity="0.6" d="M234.995 157.544L266.27 216.484C271.572 210.903 278.828 199.572 276.744 181.526C274.214 159.554 257.804 148.41 245.488 134.624C243.365 132.024 241.496 129.226 239.907 126.27C239.031 136.8 237.389 147.253 234.995 157.544Z" fill="#B9C8D1"/>
<path opacity="0.6" d="M108.168 170.307C106.847 169.358 105.563 168.335 104.279 167.274C102.439 165.717 100.773 163.964 99.3118 162.046C97.749 163.125 95.9071 164.316 93.7304 165.544C84.4281 170.865 67.7955 173.712 67.7955 173.712L58.3071 205.507C74.0038 200.047 90.3011 196.499 106.847 194.939L108.168 170.307Z" fill="#B9C8D1"/>
<path opacity="0.6" d="M212.093 173.712C212.093 173.712 195.498 170.865 186.158 165.544C183.698 164.145 181.324 162.598 179.051 160.912C177.702 164.268 175.646 167.295 173.023 169.786L171.833 170.66L173.023 195.088C189.658 196.742 206.024 200.448 221.749 206.121L212.093 173.712Z" fill="#B9C8D1"/>
<path opacity="0.6" d="M44.9118 157.544C42.3028 146.386 40.5796 135.039 39.7583 123.61C39.5722 120.521 39.5164 117.6 39.5164 114.81L34.0652 121.247C34.0652 121.247 34.0652 121.042 34.0652 120.949C22.1769 133.954 8.93036 151.963 7.0885 168.744C4.63269 190.847 9.60013 204.093 16.0559 211.982L44.9118 157.544Z" fill="#B9C8D1"/>
<path opacity="0.6" d="M56.5396 211.516H223.367L221.935 206.679H57.9907L56.5396 211.516Z" fill="#B9C8D1"/>
<path opacity="0.6" d="M53.1909 222.716H226.717L225.265 217.86H54.6421L53.1909 222.716Z" fill="#B9C8D1"/>
<path opacity="0.6" d="M49.8604 233.898H230.065L228.614 229.061H51.2929L49.8604 233.898Z" fill="#B9C8D1"/>
<path opacity="0.6" d="M189.879 145.228C207.449 145.228 221.693 130.984 221.693 113.414C221.693 95.8437 207.449 81.6001 189.879 81.6001C172.309 81.6001 158.065 95.8437 158.065 113.414C158.065 130.984 172.309 145.228 189.879 145.228Z" fill="#2CB1E5"/>
<path opacity="0.6" d="M89.4697 145.228C107.04 145.228 121.284 130.984 121.284 113.414C121.284 95.8437 107.04 81.6001 89.4697 81.6001C71.8994 81.6001 57.6558 95.8437 57.6558 113.414C57.6558 130.984 71.8994 145.228 89.4697 145.228Z" fill="#2CB1E5"/>
<path opacity="0.35" d="M212.093 90.1956C209.147 87.2442 205.648 84.9021 201.796 83.3029C197.944 81.7038 193.815 80.879 189.645 80.8755C185.475 80.872 181.344 81.69 177.49 83.2828C173.636 84.8756 170.133 87.2119 167.181 90.1584C161.221 96.1091 157.868 104.184 157.861 112.606C157.854 121.029 161.194 129.109 167.144 135.07L212.093 90.1956Z" fill="white"/>
<path opacity="0.35" d="M111.926 90.1956C105.975 84.235 97.9001 80.8825 89.4775 80.8755C81.0549 80.8685 72.9746 84.2077 67.014 90.1584C61.0534 96.1091 57.7008 104.184 57.6939 112.606C57.6869 121.029 61.026 129.109 66.9768 135.07L111.926 90.1956Z" fill="white"/>
<path opacity="0.75" d="M116.781 118.791C117.038 117.901 117.182 116.982 117.209 116.056C117.221 113.262 116.183 110.564 114.303 108.498C112.422 106.431 109.834 105.145 107.051 104.893C106 101.424 103.861 98.3843 100.949 96.2242C98.0379 94.0642 94.5088 92.8979 90.8836 92.8979C87.2584 92.8979 83.7293 94.0642 80.8179 96.2242C77.9065 98.3843 75.7672 101.424 74.7162 104.893C74.1923 104.819 73.6639 104.781 73.1348 104.782C71.6551 104.779 70.1894 105.068 68.8216 105.633C67.4539 106.198 66.2109 107.026 65.1637 108.072C64.1165 109.117 63.2857 110.359 62.7189 111.726C62.1521 113.093 61.8603 114.558 61.8604 116.037C61.8631 116.96 61.9819 117.879 62.2138 118.772L116.781 118.791Z" fill="white"/>
<path opacity="0.75" d="M212.391 118.568C212.854 117.317 213.093 115.994 213.098 114.661C213.098 111.6 211.883 108.664 209.72 106.498C207.558 104.332 204.624 103.112 201.563 103.107C200.466 103.105 199.374 103.268 198.326 103.591C196.39 100.416 193.47 97.9596 190.01 96.5969C186.55 95.2342 182.739 95.0393 179.158 96.042C175.577 97.0447 172.422 99.19 170.172 102.151C167.923 105.113 166.703 108.728 166.698 112.447C166.696 114.541 167.087 116.617 167.851 118.568H212.391Z" fill="white"/>
<path opacity="0.6" d="M122.604 149.972C125.488 153.861 131.535 156.54 138.53 156.54C145.525 156.54 151.553 153.861 154.474 149.972H122.604Z" fill="#B9C8D1"/>
<path d="M51.8327 233.786L69.2839 175.33C73.2653 174.586 86.5118 171.832 94.6978 167.163C99.5336 164.601 103.93 161.285 107.721 157.339C108.036 156.965 108.191 156.483 108.153 155.995C108.115 155.508 107.886 155.055 107.516 154.735C107.331 154.576 107.116 154.455 106.883 154.38C106.651 154.304 106.406 154.275 106.162 154.294C105.919 154.313 105.681 154.38 105.464 154.49C105.246 154.601 105.052 154.754 104.893 154.939C101.36 158.528 97.3013 161.559 92.856 163.925C83.9257 169.023 67.6839 171.851 67.5164 171.888L66.3815 172.074L47.9443 233.786H51.8327Z" fill="#B9C8D1"/>
<path d="M42.9395 157.303L2.36279 233.786H6.58605L46.9023 157.786L46.7163 157.098C44.1379 146.049 42.4334 134.814 41.6186 123.498C40.771 111.48 41.7242 99.402 44.4465 87.6654L92.2047 56.9491C92.854 56.5202 93.6214 56.3057 94.399 56.3357C95.1766 56.3658 95.9252 56.6388 96.5395 57.1165C97.1368 57.5459 97.5935 58.1426 97.8518 58.8314C98.1101 59.5202 98.1584 60.2701 97.9907 60.9863L95.1628 65.5817C94.9917 65.9968 94.9765 66.4598 95.12 66.8853C95.2635 67.3108 95.5561 67.67 95.9437 67.8967C96.3313 68.1233 96.7878 68.2022 97.229 68.1186C97.6702 68.0351 98.0663 67.7948 98.3442 67.4421L101.302 62.6049L101.507 62.1584C101.991 60.6772 101.997 59.0815 101.526 57.5963C101.054 56.1112 100.129 54.8115 98.8791 53.8805C97.6296 52.9495 96.1193 52.4343 94.5614 52.4074C93.0034 52.3804 91.4763 52.8432 90.1954 53.7305L41.2465 85.284L41.0419 85.9538C40.8558 86.5863 36.5395 101.489 37.9163 123.74C38.7213 135.04 40.4007 146.262 42.9395 157.303Z" fill="#B9C8D1"/>
<path d="M185.228 167.163C193.395 171.832 206.642 174.605 210.623 175.33L228.093 233.786H231.981L213.525 172.074L212.391 171.87C212.242 171.87 196 169.023 187.07 163.926C182.616 161.572 178.555 158.541 175.032 154.939C174.875 154.753 174.682 154.599 174.465 154.486C174.248 154.374 174.011 154.305 173.767 154.285C173.523 154.264 173.278 154.291 173.045 154.365C172.812 154.439 172.596 154.559 172.409 154.716C172.222 154.874 172.068 155.067 171.956 155.284C171.844 155.501 171.775 155.738 171.754 155.982C171.734 156.225 171.761 156.47 171.835 156.703C171.909 156.936 172.028 157.153 172.186 157.339C175.987 161.282 180.389 164.598 185.228 167.163Z" fill="#B9C8D1"/>
<path d="M181.581 67.5349C181.678 67.7875 181.828 68.016 182.022 68.2045C182.216 68.393 182.449 68.537 182.704 68.6264C182.959 68.7158 183.231 68.7485 183.5 68.7222C183.769 68.696 184.029 68.6113 184.262 68.4742C184.495 68.3371 184.696 68.1508 184.85 67.9283C185.003 67.7059 185.107 67.4525 185.153 67.186C185.198 66.9195 185.186 66.6462 185.115 66.3852C185.044 66.1241 184.918 65.8816 184.744 65.6744L181.935 61.0791C181.72 60.3338 181.743 59.54 182.002 58.8086C182.26 58.0773 182.741 57.4451 183.376 57.0003C184.012 56.5555 184.77 56.3203 185.546 56.3278C186.321 56.3353 187.075 56.5849 187.702 57.0419L235.479 87.7582C238.205 99.4942 239.152 111.573 238.288 123.591C237.473 134.907 235.769 146.142 233.19 157.191L233.023 157.879L273.339 233.879H277.544L236.967 157.302C239.502 146.285 241.188 135.089 242.009 123.814C243.367 101.488 239.051 86.6047 238.865 86.0279L238.679 85.3582L189.767 53.8233C188.486 52.936 186.959 52.4732 185.401 52.5001C183.843 52.5271 182.333 53.0423 181.084 53.9733C179.834 54.9043 178.908 56.204 178.437 57.6891C177.965 59.1743 177.972 60.77 178.456 62.2512L181.581 67.5349Z" fill="#B9C8D1"/>
<path opacity="0.6" d="M188.707 55.3861L218.903 74.7908C218.903 74.7908 218.903 74.6605 218.903 74.5861C213.098 55.9815 208.242 42.2698 189.786 25.4884C172.465 9.80471 138.53 6.64192 120.075 6.1582H119.684C116.549 6.16071 113.537 7.3768 111.279 9.55153C109.021 11.7262 107.693 14.6907 107.572 17.8233V20.8187C102.505 21.791 97.6802 23.7576 93.3769 26.6047C75.3304 39.0698 71.2188 53.9535 70.3444 67.4605L70.5862 67.3117L70.2886 68.8373L91.163 55.3861C92.1341 54.7619 93.2724 54.4487 94.4262 54.4884C95.5799 54.528 96.6941 54.9186 97.62 55.608C98.5459 56.2974 99.2396 57.2528 99.6084 58.3467C99.9771 59.4406 100.004 60.621 99.6839 61.7303L94.6235 69.9722L95.2374 74.5303C99.7865 75.1352 104.194 76.5331 108.261 78.6605C111.748 73.3499 114.531 67.6089 116.54 61.5815L116.763 61.3954C121.21 67.4605 128.912 74.5861 141.861 82.4931C147.939 82.7164 153.957 83.7872 159.74 85.6745C163.45 81.674 167.925 78.4598 172.902 76.2227C177.878 73.9855 183.253 72.771 188.707 72.6512L180.242 61.7117C179.882 60.6031 179.879 59.4098 180.232 58.2991C180.585 57.1884 181.277 56.2161 182.21 55.5185C183.144 54.8209 184.272 54.433 185.437 54.4093C186.603 54.3855 187.746 54.7271 188.707 55.3861ZM197.768 60.8001V60.6512V60.8001Z" fill="#B9C8D1"/>
<path d="M139.535 82.4374C142.372 82.4417 145.206 82.6344 148.019 83.0141C123.256 69.6188 115.349 58.5676 113.488 51.2002C112.955 49.6308 112.763 47.9654 112.927 46.316C113.09 44.6665 113.605 43.0712 114.437 41.6374C114.598 41.4443 114.718 41.2208 114.79 40.9801C114.862 40.7394 114.885 40.4866 114.856 40.237C114.828 39.9873 114.75 39.746 114.626 39.5276C114.501 39.3091 114.334 39.118 114.134 38.9659C113.935 38.8137 113.706 38.7037 113.462 38.6423C113.219 38.5809 112.965 38.5695 112.717 38.6088C112.469 38.6481 112.231 38.7372 112.018 38.8708C111.806 39.0044 111.622 39.1797 111.479 39.3862C111.33 39.5722 107.87 44.1862 109.823 51.9443C111.628 59.2932 118.66 69.9164 139.535 82.4374Z" fill="#B5C4CC"/>
<path d="M189.879 155.926C181.464 155.926 173.237 153.429 166.241 148.752C159.245 144.074 153.794 137.426 150.578 129.65C147.361 121.873 146.525 113.317 148.173 105.064C149.822 96.8114 153.882 89.2334 159.839 83.2892C165.796 77.3449 173.383 73.3017 181.639 71.6712C189.895 70.0406 198.45 70.8962 206.219 74.1294C213.989 77.3627 220.625 82.8284 225.287 89.8347C229.949 96.841 232.428 105.073 232.41 113.489C232.375 124.749 227.88 135.537 219.909 143.491C211.938 151.445 201.14 155.916 189.879 155.926ZM189.879 74.6048C182.207 74.6048 174.706 76.8791 168.326 81.1402C161.945 85.4013 156.971 91.4581 154.031 98.5453C151.092 105.632 150.319 113.432 151.81 120.958C153.302 128.484 156.991 135.4 162.411 140.83C167.831 146.261 174.739 149.963 182.262 151.469C189.786 152.974 197.587 152.216 204.679 149.291C211.772 146.365 217.839 141.402 222.112 135.029C226.385 128.657 228.674 121.161 228.689 113.489C228.693 108.387 227.694 103.335 225.746 98.6198C223.798 93.9048 220.941 89.6197 217.337 86.009C213.733 82.3983 209.454 79.5328 204.742 77.576C200.031 75.6193 194.981 74.6097 189.879 74.6048Z" fill="#2CB1E5"/>
<path d="M149.079 113.489C149.079 112.558 149.079 111.628 149.172 110.698C146.228 109.642 143.128 109.082 140 109.042C136.639 109.073 133.302 109.612 130.102 110.642C130.102 111.126 130.102 111.609 130.102 112.093C130.102 112.93 130.102 113.73 129.972 114.549C133.163 113.378 136.527 112.749 139.926 112.689C143.047 112.739 146.132 113.37 149.023 114.549C149.098 114.27 149.079 113.898 149.079 113.489Z" fill="#2CB1E5"/>
<path d="M158.4 87.3116C159.256 86.2697 160.261 85.2651 161.116 84.2976C147.256 79.5409 132.211 79.5016 118.326 84.186C119.321 85.1467 120.265 86.1589 121.154 87.2185C133.303 83.4112 146.326 83.4112 158.475 87.2185L158.4 87.3116Z" fill="#2CB1E5"/>
<path d="M110.437 78.1395C113.684 73.1773 116.308 67.835 118.251 62.2326C118.367 61.7816 118.309 61.3037 118.089 60.8932C117.87 60.4827 117.504 60.1694 117.065 60.0152C116.626 59.861 116.145 59.8771 115.717 60.0602C115.289 60.2434 114.945 60.5804 114.753 61.0046C112.86 66.3951 110.297 71.5267 107.125 76.2791C108.26 76.8426 109.366 77.4636 110.437 78.1395Z" fill="#B5C4CC"/>
<path d="M89.9721 155.926C81.5557 155.929 73.3274 153.436 66.3289 148.761C59.3303 144.085 53.8763 137.439 50.6572 129.662C47.4381 121.886 46.5986 113.329 48.2451 105.075C49.8916 96.8216 53.95 89.2418 59.9065 83.2957C65.8631 77.3496 73.4499 73.3045 81.7066 71.6725C89.9633 70.0405 98.5185 70.8949 106.289 74.1276C114.06 77.3604 120.697 82.8261 125.36 89.8327C130.023 96.8394 132.502 105.072 132.484 113.489C132.449 124.746 127.957 135.531 119.99 143.484C112.023 151.438 101.229 155.911 89.9721 155.926ZM89.9721 74.6048C82.2987 74.6011 74.7965 76.8723 68.4135 81.1312C62.0305 85.3901 57.0533 91.4456 54.1109 98.5324C51.1685 105.619 50.3929 113.419 51.8823 120.947C53.3716 128.474 57.059 135.391 62.4784 140.824C67.8978 146.256 74.806 149.96 82.3298 151.467C89.8537 152.975 97.6555 152.218 104.749 149.292C111.843 146.367 117.911 141.404 122.185 135.031C126.459 128.659 128.748 121.162 128.763 113.489C128.768 103.19 124.685 93.3115 117.412 86.021C110.139 78.7305 100.27 74.6245 89.9721 74.6048Z" fill="#2CB1E5"/>
<path opacity="0.3" d="M108.186 169.972L106.902 194.568L123.386 178.102C117.951 176.146 112.83 173.407 108.186 169.972Z" fill="#B9C8D1"/>
</svg>
